<?xml version="1.0" encoding="UTF-8" standalone="no"?>
<svg
   xmlns:dc="http://purl.org/dc/elements/1.1/"
   xmlns:cc="http://creativecommons.org/ns#"
   xmlns:rdf="http://www.w3.org/1999/02/22-rdf-syntax-ns#"
   xmlns:svg="http://www.w3.org/2000/svg"
   xmlns="http://www.w3.org/2000/svg"
   xmlns:sodipodi="http://sodipodi.sourceforge.net/DTD/sodipodi-0.dtd"
   xmlns:inkscape="http://www.inkscape.org/namespaces/inkscape"
   width="78.942291mm"
   height="90.999985mm"
   viewBox="0 0 78.942291 90.999985"
   version="1.1"
   id="svg8"
   inkscape:version="1.0.2-2 (e86c870879, 2021-01-15)"
   sodipodi:docname="pll.svg">
  <defs
     id="defs2">
    <inkscape:path-effect
       effect="bspline"
       id="path-effect1342"
       is_visible="true"
       lpeversion="1"
       weight="33.333333"
       steps="2"
       helper_size="0"
       apply_no_weight="true"
       apply_with_weight="true"
       only_selected="false" />
    <inkscape:path-effect
       effect="bspline"
       id="path-effect1340"
       is_visible="true"
       lpeversion="1"
       weight="33.333333"
       steps="2"
       helper_size="0"
       apply_no_weight="true"
       apply_with_weight="true"
       only_selected="false" />
    <inkscape:path-effect
       effect="bspline"
       id="path-effect1338"
       is_visible="true"
       lpeversion="1"
       weight="33.333333"
       steps="2"
       helper_size="0"
       apply_no_weight="true"
       apply_with_weight="true"
       only_selected="false" />
    <inkscape:path-effect
       effect="bspline"
       id="path-effect1318"
       is_visible="true"
       lpeversion="1"
       weight="33.333333"
       steps="2"
       helper_size="0"
       apply_no_weight="true"
       apply_with_weight="true"
       only_selected="false" />
    <inkscape:path-effect
       effect="bspline"
       id="path-effect1316"
       is_visible="true"
       lpeversion="1"
       weight="33.333333"
       steps="2"
       helper_size="0"
       apply_no_weight="true"
       apply_with_weight="true"
       only_selected="false" />
    <inkscape:path-effect
       effect="bspline"
       id="path-effect1314"
       is_visible="true"
       lpeversion="1"
       weight="33.333333"
       steps="2"
       helper_size="0"
       apply_no_weight="true"
       apply_with_weight="true"
       only_selected="false" />
    <inkscape:path-effect
       effect="bspline"
       id="path-effect1280"
       is_visible="true"
       lpeversion="1"
       weight="33.333333"
       steps="2"
       helper_size="0"
       apply_no_weight="true"
       apply_with_weight="true"
       only_selected="false" />
    <inkscape:path-effect
       effect="bspline"
       id="path-effect1268"
       is_visible="true"
       lpeversion="1"
       weight="33.333333"
       steps="2"
       helper_size="0"
       apply_no_weight="true"
       apply_with_weight="true"
       only_selected="false" />
    <inkscape:path-effect
       effect="bspline"
       id="path-effect1244"
       is_visible="true"
       lpeversion="1"
       weight="33.333333"
       steps="2"
       helper_size="0"
       apply_no_weight="true"
       apply_with_weight="true"
       only_selected="false" />
    <inkscape:path-effect
       effect="bspline"
       id="path-effect1218"
       is_visible="true"
       lpeversion="1"
       weight="33.333333"
       steps="2"
       helper_size="0"
       apply_no_weight="true"
       apply_with_weight="true"
       only_selected="false" />
    <inkscape:path-effect
       effect="bspline"
       id="path-effect1216"
       is_visible="true"
       lpeversion="1"
       weight="33.333333"
       steps="2"
       helper_size="0"
       apply_no_weight="true"
       apply_with_weight="true"
       only_selected="false" />
    <inkscape:path-effect
       effect="bspline"
       id="path-effect1214"
       is_visible="true"
       lpeversion="1"
       weight="33.333333"
       steps="2"
       helper_size="0"
       apply_no_weight="true"
       apply_with_weight="true"
       only_selected="false" />
    <inkscape:path-effect
       effect="bspline"
       id="path-effect1194"
       is_visible="true"
       lpeversion="1"
       weight="33.333333"
       steps="2"
       helper_size="0"
       apply_no_weight="true"
       apply_with_weight="true"
       only_selected="false" />
    <inkscape:path-effect
       effect="bspline"
       id="path-effect1192"
       is_visible="true"
       lpeversion="1"
       weight="33.333333"
       steps="2"
       helper_size="0"
       apply_no_weight="true"
       apply_with_weight="true"
       only_selected="false" />
    <inkscape:path-effect
       effect="bspline"
       id="path-effect1190"
       is_visible="true"
       lpeversion="1"
       weight="33.333333"
       steps="2"
       helper_size="0"
       apply_no_weight="true"
       apply_with_weight="true"
       only_selected="false" />
    <inkscape:path-effect
       effect="bspline"
       id="path-effect1156"
       is_visible="true"
       lpeversion="1"
       weight="33.333333"
       steps="2"
       helper_size="0"
       apply_no_weight="true"
       apply_with_weight="true"
       only_selected="false" />
    <inkscape:path-effect
       effect="bspline"
       id="path-effect1132"
       is_visible="true"
       lpeversion="1"
       weight="33.333333"
       steps="2"
       helper_size="0"
       apply_no_weight="true"
       apply_with_weight="true"
       only_selected="false" />
    <inkscape:path-effect
       effect="bspline"
       id="path-effect1109"
       is_visible="true"
       lpeversion="1"
       weight="33.333333"
       steps="2"
       helper_size="0"
       apply_no_weight="true"
       apply_with_weight="true"
       only_selected="false" />
    <inkscape:path-effect
       effect="bspline"
       id="path-effect1100"
       is_visible="true"
       lpeversion="1"
       weight="33.333333"
       steps="2"
       helper_size="0"
       apply_no_weight="true"
       apply_with_weight="true"
       only_selected="false" />
    <inkscape:path-effect
       effect="bspline"
       id="path-effect986"
       is_visible="true"
       lpeversion="1"
       weight="33.333333"
       steps="2"
       helper_size="0"
       apply_no_weight="true"
       apply_with_weight="true"
       only_selected="false" />
    <inkscape:path-effect
       effect="bspline"
       id="path-effect984"
       is_visible="true"
       lpeversion="1"
       weight="33.333333"
       steps="2"
       helper_size="0"
       apply_no_weight="true"
       apply_with_weight="true"
       only_selected="false" />
    <inkscape:path-effect
       effect="bspline"
       id="path-effect982"
       is_visible="true"
       lpeversion="1"
       weight="33.333333"
       steps="2"
       helper_size="0"
       apply_no_weight="true"
       apply_with_weight="true"
       only_selected="false" />
    <inkscape:path-effect
       effect="bspline"
       id="path-effect962"
       is_visible="true"
       lpeversion="1"
       weight="33.333333"
       steps="2"
       helper_size="0"
       apply_no_weight="true"
       apply_with_weight="true"
       only_selected="false" />
    <inkscape:path-effect
       effect="bspline"
       id="path-effect960"
       is_visible="true"
       lpeversion="1"
       weight="33.333333"
       steps="2"
       helper_size="0"
       apply_no_weight="true"
       apply_with_weight="true"
       only_selected="false" />
    <inkscape:path-effect
       effect="bspline"
       id="path-effect958"
       is_visible="true"
       lpeversion="1"
       weight="33.333333"
       steps="2"
       helper_size="0"
       apply_no_weight="true"
       apply_with_weight="true"
       only_selected="false" />
    <inkscape:path-effect
       effect="bspline"
       id="path-effect924"
       is_visible="true"
       lpeversion="1"
       weight="33.333333"
       steps="2"
       helper_size="0"
       apply_no_weight="true"
       apply_with_weight="true"
       only_selected="false" />
    <inkscape:path-effect
       effect="bspline"
       id="path-effect912"
       is_visible="true"
       lpeversion="1"
       weight="33.333333"
       steps="2"
       helper_size="0"
       apply_no_weight="true"
       apply_with_weight="true"
       only_selected="false" />
    <inkscape:path-effect
       effect="bspline"
       id="path-effect853"
       is_visible="true"
       lpeversion="1"
       weight="33.333333"
       steps="2"
       helper_size="0"
       apply_no_weight="true"
       apply_with_weight="true"
       only_selected="false" />
  </defs>
  <sodipodi:namedview
     id="base"
     pagecolor="#ffffff"
     bordercolor="#666666"
     borderopacity="1.0"
     inkscape:pageopacity="0.0"
     inkscape:pageshadow="2"
     inkscape:zoom="1.979899"
     inkscape:cx="90.286268"
     inkscape:cy="152.07065"
     inkscape:document-units="mm"
     inkscape:current-layer="layer1"
     inkscape:document-rotation="0"
     showgrid="true"
     inkscape:window-width="1920"
     inkscape:window-height="991"
     inkscape:window-x="-9"
     inkscape:window-y="-9"
     inkscape:window-maximized="1"
     fit-margin-top="0"
     fit-margin-left="0"
     fit-margin-right="0"
     fit-margin-bottom="0">
    <inkscape:grid
       type="axonomgrid"
       id="grid833"
       originx="-125.07368"
       originy="-124.50001" />
  </sodipodi:namedview>
  <metadata
     id="metadata5">
    <rdf:RDF>
      <cc:Work
         rdf:about="">
        <dc:format>image/svg+xml</dc:format>
        <dc:type
           rdf:resource="http://purl.org/dc/dcmitype/StillImage" />
        <dc:title />
      </cc:Work>
    </rdf:RDF>
  </metadata>
  <g
     inkscape:label="Layer 1"
     inkscape:groupmode="layer"
     id="layer1"
     transform="translate(-125.07368,-124.50001)">
    <path
       style="fill:#0f071d;fill-opacity:1;stroke:#000000;stroke-width:1;stroke-linecap:butt;stroke-linejoin:round;stroke-miterlimit:4;stroke-dasharray:none;stroke-opacity:1"
       d="m 125.57368,147.5 38.97115,-22.5 38.97114,22.5 v 45 L 164.54483,215 125.57368,192.5 v -45"
       id="path1581" />
    <path
       style="fill:#ffff32;fill-opacity:1;stroke:#000000;stroke-width:0.5;stroke-linecap:butt;stroke-linejoin:miter;stroke-miterlimit:4;stroke-dasharray:none;stroke-opacity:1"
       d="m 155.88456,130 c 1.44346,-0.83338 2.88684,-1.66672 4.33023,-2.50006 1.44339,-0.83334 2.88673,-1.66665 4.33024,-1.66653 1.4435,1.2e-4 2.88685,0.83344 4.33024,1.66678 1.44339,0.83334 2.88674,1.66666 4.33013,2.5 1.44339,0.83334 2.88673,1.66666 2.88661,2.49988 -1.3e-4,0.83323 -1.44348,1.66655 -2.88687,2.49989 -1.44339,0.83334 -2.88674,1.66666 -4.33013,2.5 -1.44339,0.83334 -2.88673,1.66666 -4.33001,1.66676 -1.44328,1.1e-4 -2.88662,-0.83321 -4.33001,-1.66655 -1.44339,-0.83334 -2.88674,-1.66665 -4.33013,-2.5 -1.44339,-0.83334 -2.88673,-1.66666 -2.88683,-2.50011 -1e-4,-0.83346 1.44324,-1.66677 2.88653,-2.50006"
       id="path851-01" />
    <path
       style="fill:#ffff32;fill-opacity:1;stroke:#000000;stroke-width:0.5;stroke-linecap:butt;stroke-linejoin:miter;stroke-miterlimit:4;stroke-dasharray:none;stroke-opacity:1"
       d="m 142.89418,137.5 c 1.44347,-0.83338 2.88684,-1.66672 4.33023,-2.50006 1.44339,-0.83334 2.88674,-1.66665 4.33024,-1.66653 1.4435,1.2e-4 2.88685,0.83344 4.33024,1.66678 1.44339,0.83334 2.88674,1.66666 4.33013,2.5 1.44339,0.83334 2.88673,1.66666 2.88661,2.49988 -1.3e-4,0.83323 -1.44348,1.66655 -2.88687,2.49989 -1.44339,0.83334 -2.88674,1.66666 -4.33012,2.5 -1.44339,0.83334 -2.88674,1.66666 -4.33002,1.66676 -1.44327,1.1e-4 -2.88662,-0.83321 -4.33001,-1.66655 -1.44339,-0.83334 -2.88674,-1.66665 -4.33013,-2.5 -1.44339,-0.83334 -2.88673,-1.66666 -2.88683,-2.50011 -1e-4,-0.83346 1.44324,-1.66677 2.88653,-2.50006"
       id="path851-6-0" />
    <path
       style="fill:#ffff32;fill-opacity:1;stroke:#000000;stroke-width:0.5;stroke-linecap:butt;stroke-linejoin:miter;stroke-miterlimit:4;stroke-dasharray:none;stroke-opacity:1"
       d="m 129.9038,145 c 1.44346,-0.83338 2.88684,-1.66672 4.33023,-2.50006 1.44339,-0.83334 2.88673,-1.66665 4.33024,-1.66653 1.4435,1.2e-4 2.88685,0.83344 4.33024,1.66678 1.44339,0.83334 2.88674,1.66666 4.33013,2.5 1.44339,0.83334 2.88673,1.66666 2.88661,2.49988 -1.3e-4,0.83323 -1.44348,1.66655 -2.88687,2.49989 -1.44339,0.83334 -2.88674,1.66666 -4.33012,2.5 -1.44339,0.83334 -2.88674,1.66666 -4.33002,1.66676 -1.44328,1.1e-4 -2.88662,-0.83321 -4.33001,-1.66655 -1.44339,-0.83334 -2.88674,-1.66665 -4.33013,-2.5 -1.44339,-0.83334 -2.88673,-1.66666 -2.88683,-2.50011 -1e-4,-0.83346 1.44324,-1.66677 2.88653,-2.50006"
       id="path851-2-34" />
    <path
       style="fill:#ffff32;fill-opacity:1;stroke:#000000;stroke-width:0.5;stroke-linecap:butt;stroke-linejoin:miter;stroke-miterlimit:4;stroke-dasharray:none;stroke-opacity:1"
       d="m 168.87494,137.5 c 1.44346,-0.83338 2.88684,-1.66672 4.33023,-2.50006 1.44339,-0.83334 2.88674,-1.66666 4.33024,-1.66653 1.44351,1.2e-4 2.88685,0.83344 4.33024,1.66678 1.44338,0.83334 2.88674,1.66666 4.33013,2.5 1.44339,0.83334 2.88674,1.66666 2.88661,2.49988 -1.3e-4,0.83323 -1.44348,1.66655 -2.88687,2.49989 -1.44339,0.83334 -2.88674,1.66666 -4.33013,2.5 -1.44338,0.83334 -2.88673,1.66666 -4.33001,1.66676 -1.44328,1.1e-4 -2.88662,-0.83321 -4.33001,-1.66655 -1.44339,-0.83334 -2.88674,-1.66665 -4.33013,-2.5 -1.44339,-0.83334 -2.88673,-1.66666 -2.88683,-2.50011 -10e-5,-0.83346 1.44324,-1.66677 2.88653,-2.50006"
       id="path851-0-2" />
    <path
       style="fill:#ffff32;fill-opacity:1;stroke:#000000;stroke-width:0.5;stroke-linecap:butt;stroke-linejoin:miter;stroke-miterlimit:4;stroke-dasharray:none;stroke-opacity:1"
       d="m 155.88457,145 c 1.44345,-0.83338 2.88683,-1.66672 4.33022,-2.50006 1.44339,-0.83334 2.88673,-1.66665 4.33024,-1.66653 1.4435,1.2e-4 2.88685,0.83344 4.33024,1.66678 1.44339,0.83334 2.88674,1.66666 4.33013,2.5 1.44339,0.83334 2.88674,1.66666 2.88661,2.49988 -1.3e-4,0.83323 -1.44348,1.66655 -2.88687,2.49989 -1.44339,0.83334 -2.88674,1.66666 -4.33012,2.5 -1.44339,0.83334 -2.88674,1.66666 -4.33002,1.66676 -1.44328,1.1e-4 -2.88662,-0.83321 -4.33001,-1.66655 -1.44339,-0.83334 -2.88674,-1.66665 -4.33013,-2.5 -1.44339,-0.83334 -2.88673,-1.66666 -2.88683,-2.50011 -1e-4,-0.83346 1.44324,-1.66677 2.88654,-2.50006"
       id="path851-6-8-8" />
    <path
       style="fill:#ffff32;fill-opacity:1;stroke:#000000;stroke-width:0.5;stroke-linecap:butt;stroke-linejoin:miter;stroke-miterlimit:4;stroke-dasharray:none;stroke-opacity:1"
       d="m 142.89419,152.5 c 1.44346,-0.83338 2.88683,-1.66672 4.33022,-2.50006 1.44339,-0.83334 2.88674,-1.66665 4.33024,-1.66653 1.44351,1.2e-4 2.88685,0.83344 4.33024,1.66678 1.44339,0.83334 2.88674,1.66666 4.33013,2.5 1.44339,0.83334 2.88673,1.66666 2.88661,2.49988 -1.3e-4,0.83323 -1.44348,1.66655 -2.88687,2.49989 -1.44339,0.83334 -2.88674,1.66666 -4.33012,2.5 -1.44339,0.83334 -2.88674,1.66666 -4.33002,1.66676 -1.44327,1.1e-4 -2.88662,-0.83321 -4.33001,-1.66655 -1.44339,-0.83334 -2.88673,-1.66665 -4.33013,-2.5 -1.44339,-0.83334 -2.88673,-1.66666 -2.88683,-2.50011 -1e-4,-0.83346 1.44324,-1.66677 2.88654,-2.50006"
       id="path851-2-3-6" />
    <path
       style="fill:#ffff32;fill-opacity:1;stroke:#000000;stroke-width:0.5;stroke-linecap:butt;stroke-linejoin:miter;stroke-miterlimit:4;stroke-dasharray:none;stroke-opacity:1"
       d="m 181.86532,145 c 1.44347,-0.83339 2.88684,-1.66672 4.33023,-2.50006 1.44339,-0.83334 2.88674,-1.66665 4.33024,-1.66653 1.44351,1.2e-4 2.88685,0.83344 4.33024,1.66678 1.44339,0.83334 2.88674,1.66666 4.33013,2.5 1.44339,0.83334 2.88674,1.66666 2.88661,2.49988 -1.3e-4,0.83323 -1.44348,1.66655 -2.88687,2.49989 -1.44339,0.83334 -2.88674,1.66666 -4.33013,2.5 -1.44338,0.83334 -2.88673,1.66666 -4.33001,1.66676 -1.44327,1.1e-4 -2.88662,-0.83321 -4.33001,-1.66655 -1.44339,-0.83334 -2.88674,-1.66666 -4.33013,-2.5 -1.44339,-0.83334 -2.88673,-1.66665 -2.88683,-2.50011 -1e-4,-0.83346 1.44324,-1.66677 2.88653,-2.50006"
       id="path851-3-7" />
    <path
       style="fill:#ffff32;fill-opacity:1;stroke:#000000;stroke-width:0.5;stroke-linecap:butt;stroke-linejoin:miter;stroke-miterlimit:4;stroke-dasharray:none;stroke-opacity:1"
       d="m 168.87495,152.5 c 1.44346,-0.83338 2.88683,-1.66672 4.33022,-2.50006 1.4434,-0.83334 2.88674,-1.66666 4.33025,-1.66653 1.4435,1.2e-4 2.88685,0.83344 4.33024,1.66678 1.44338,0.83334 2.88673,1.66666 4.33012,2.5 1.44339,0.83334 2.88674,1.66666 2.88661,2.49988 -1.3e-4,0.83323 -1.44348,1.66655 -2.88687,2.49989 -1.44339,0.83334 -2.88674,1.66666 -4.33012,2.5 -1.44339,0.83334 -2.88674,1.66666 -4.33001,1.66676 -1.44328,1.1e-4 -2.88663,-0.83321 -4.33002,-1.66655 -1.44339,-0.83334 -2.88673,-1.66665 -4.33012,-2.5 -1.4434,-0.83334 -2.88674,-1.66666 -2.88684,-2.50011 -10e-5,-0.83346 1.44325,-1.66677 2.88654,-2.50006"
       id="path851-6-2-2" />
    <path
       style="fill:#ffff32;fill-opacity:1;stroke:#000000;stroke-width:0.5;stroke-linecap:butt;stroke-linejoin:miter;stroke-miterlimit:4;stroke-dasharray:none;stroke-opacity:1"
       d="m 155.88457,160 c 1.44346,-0.83338 2.88683,-1.66672 4.33022,-2.50006 1.44339,-0.83334 2.88674,-1.66665 4.33024,-1.66653 1.44351,1.2e-4 2.88686,0.83344 4.33024,1.66678 1.44339,0.83334 2.88674,1.66666 4.33013,2.5 1.44339,0.83334 2.88674,1.66666 2.88661,2.49988 -1.2e-4,0.83323 -1.44347,1.66655 -2.88686,2.49989 -1.44339,0.83334 -2.88674,1.66666 -4.33013,2.5 -1.44339,0.83334 -2.88674,1.66666 -4.33001,1.66676 -1.44328,1.1e-4 -2.88663,-0.83321 -4.33002,-1.66655 -1.44339,-0.83334 -2.88673,-1.66665 -4.33012,-2.5 -1.44339,-0.83334 -2.88674,-1.66666 -2.88684,-2.50011 -1e-4,-0.83346 1.44325,-1.66677 2.88654,-2.50006"
       id="path851-2-9-8" />
    <path
       style="fill:#4646ff;fill-opacity:1;stroke:#000000;stroke-width:0.5;stroke-linecap:butt;stroke-linejoin:miter;stroke-miterlimit:4;stroke-dasharray:none;stroke-opacity:1"
       d="m 125.57368,152.5 c 0,1.66693 0,3.3336 0,5.00028 0,1.66668 0,3.33332 0.72185,4.58329 0.72186,1.24996 2.16521,2.08328 3.6086,2.91662 1.44339,0.83334 2.88674,1.66666 4.33013,2.5 1.44339,0.83334 2.88673,1.66666 3.60826,1.25001 0.72154,-0.41664 0.72154,-2.08327 0.72154,-3.74996 0,-1.66668 0,-3.33331 0,-5 0,-1.66668 0,-3.33331 -0.72155,-4.58336 -0.72155,-1.25005 -2.16489,-2.08336 -3.60828,-2.91671 -1.44339,-0.83334 -2.88674,-1.66666 -4.33013,-2.5 -1.44339,-0.83334 -2.88673,-1.66665 -3.60858,-1.24993 -0.72184,0.41672 -0.72184,2.08336 -0.72184,3.74976"
       id="path1107-8" />
    <path
       style="fill:#4646ff;fill-opacity:1;stroke:#000000;stroke-width:0.5;stroke-linecap:butt;stroke-linejoin:miter;stroke-miterlimit:4;stroke-dasharray:none;stroke-opacity:1"
       d="m 138.56406,160 c 0,1.66693 0,3.3336 0,5.00028 0,1.66668 0,3.33332 0.72186,4.58329 0.72185,1.24996 2.1652,2.08328 3.60859,2.91662 1.44339,0.83334 2.88674,1.66666 4.33013,2.5 1.44339,0.83334 2.88673,1.66666 3.60827,1.25001 0.72153,-0.41664 0.72153,-2.08327 0.72153,-3.74996 0,-1.66668 0,-3.33331 0,-5 0,-1.66668 0,-3.33331 -0.72155,-4.58336 -0.72154,-1.25005 -2.16489,-2.08336 -3.60828,-2.91671 -1.44339,-0.83334 -2.88674,-1.66666 -4.33013,-2.5 -1.44339,-0.83334 -2.88673,-1.66665 -3.60858,-1.24993 -0.72184,0.41672 -0.72184,2.08336 -0.72184,3.74976"
       id="path1107-1-2" />
    <path
       style="fill:#4646ff;fill-opacity:1;stroke:#000000;stroke-width:0.5;stroke-linecap:butt;stroke-linejoin:miter;stroke-miterlimit:4;stroke-dasharray:none;stroke-opacity:1"
       d="m 151.55444,167.5 c 0,1.66693 0,3.3336 0,5.00028 0,1.66668 0,3.33332 0.72186,4.58329 0.72185,1.24996 2.1652,2.08328 3.60859,2.91662 1.44339,0.83334 2.88673,1.66666 4.33012,2.5 1.44339,0.83334 2.88674,1.66666 3.60827,1.25001 0.72153,-0.41664 0.72153,-2.08327 0.72153,-3.74996 0,-1.66668 0,-3.33331 0,-5 0,-1.66668 0,-3.33331 -0.72154,-4.58336 -0.72155,-1.25005 -2.16489,-2.08336 -3.60828,-2.91671 -1.4434,-0.83334 -2.88674,-1.66666 -4.33013,-2.5 -1.44339,-0.83334 -2.88673,-1.66665 -3.60858,-1.24993 -0.72184,0.41672 -0.72184,2.08336 -0.72184,3.74976"
       id="path1107-1-8-7" />
    <path
       style="fill:#464646;fill-opacity:1;stroke:#000000;stroke-width:0.5;stroke-linecap:butt;stroke-linejoin:miter;stroke-miterlimit:4;stroke-dasharray:none;stroke-opacity:1"
       d="m 125.57368,167.5 c 0,1.66693 0,3.3336 0,5.00028 0,1.66668 0,3.33332 0.72185,4.58329 0.72186,1.24996 2.16521,2.08328 3.6086,2.91662 1.44339,0.83334 2.88674,1.66666 4.33013,2.5 1.44339,0.83334 2.88673,1.66666 3.60826,1.25001 0.72154,-0.41664 0.72154,-2.08327 0.72154,-3.74996 0,-1.66668 0,-3.33331 0,-5 0,-1.66668 0,-3.33331 -0.72155,-4.58336 -0.72155,-1.25005 -2.16489,-2.08336 -3.60828,-2.91671 -1.44339,-0.83334 -2.88674,-1.66666 -4.33013,-2.5 -1.44339,-0.83334 -2.88673,-1.66665 -3.60858,-1.24993 -0.72184,0.41672 -0.72184,2.08336 -0.72184,3.74976"
       id="path1107-3-0" />
    <path
       style="fill:#464646;fill-opacity:1;stroke:#000000;stroke-width:0.5;stroke-linecap:butt;stroke-linejoin:miter;stroke-miterlimit:4;stroke-dasharray:none;stroke-opacity:1"
       d="m 138.56406,175 c 0,1.66693 0,3.3336 0,5.00028 0,1.66668 0,3.33332 0.72186,4.58329 0.72185,1.24996 2.1652,2.08328 3.60859,2.91662 1.44339,0.83334 2.88674,1.66666 4.33013,2.5 1.44339,0.83334 2.88673,1.66666 3.60827,1.25001 0.72153,-0.41664 0.72153,-2.08327 0.72153,-3.74996 0,-1.66668 0,-3.33331 0,-5 0,-1.66668 0,-3.33331 -0.72155,-4.58336 -0.72154,-1.25005 -2.16489,-2.08336 -3.60828,-2.91671 -1.44339,-0.83334 -2.88674,-1.66666 -4.33013,-2.5 -1.44339,-0.83334 -2.88673,-1.66665 -3.60858,-1.24993 -0.72184,0.41672 -0.72184,2.08336 -0.72184,3.74976"
       id="path1107-1-6-9" />
    <path
       style="fill:#464646;fill-opacity:1;stroke:#000000;stroke-width:0.5;stroke-linecap:butt;stroke-linejoin:miter;stroke-miterlimit:4;stroke-dasharray:none;stroke-opacity:1"
       d="m 151.55444,182.5 c 0,1.66693 0,3.3336 0,5.00028 0,1.66668 0,3.33332 0.72186,4.58329 0.72185,1.24996 2.1652,2.08328 3.60859,2.91662 1.44339,0.83334 2.88673,1.66666 4.33012,2.5 1.44339,0.83334 2.88674,1.66666 3.60827,1.25001 0.72153,-0.41664 0.72153,-2.08327 0.72153,-3.74996 0,-1.66668 0,-3.33331 0,-5 0,-1.66668 0,-3.33331 -0.72154,-4.58336 -0.72155,-1.25005 -2.16489,-2.08336 -3.60828,-2.91671 -1.4434,-0.83334 -2.88674,-1.66666 -4.33013,-2.5 -1.44339,-0.83334 -2.88673,-1.66665 -3.60858,-1.24993 -0.72184,0.41672 -0.72184,2.08336 -0.72184,3.74976"
       id="path1107-1-8-1-1" />
    <path
       style="fill:#464646;fill-opacity:1;stroke:#000000;stroke-width:0.5;stroke-linecap:butt;stroke-linejoin:miter;stroke-miterlimit:4;stroke-dasharray:none;stroke-opacity:1"
       d="m 125.57368,182.5 c 0,1.66693 0,3.3336 0,5.00028 0,1.66668 0,3.33332 0.72185,4.58329 0.72186,1.24996 2.16521,2.08328 3.6086,2.91662 1.44339,0.83334 2.88674,1.66666 4.33013,2.5 1.44339,0.83334 2.88673,1.66666 3.60826,1.25001 0.72154,-0.41664 0.72154,-2.08327 0.72154,-3.74996 0,-1.66668 0,-3.33331 0,-5 0,-1.66668 0,-3.33331 -0.72155,-4.58336 -0.72155,-1.25005 -2.16489,-2.08336 -3.60828,-2.91671 -1.44339,-0.83334 -2.88674,-1.66666 -4.33013,-2.5 -1.44339,-0.83334 -2.88673,-1.66665 -3.60858,-1.24993 -0.72184,0.41672 -0.72184,2.08336 -0.72184,3.74976"
       id="path1107-9-1" />
    <path
       style="fill:#464646;fill-opacity:1;stroke:#000000;stroke-width:0.5;stroke-linecap:butt;stroke-linejoin:miter;stroke-miterlimit:4;stroke-dasharray:none;stroke-opacity:1"
       d="m 138.56406,190 c 0,1.66693 0,3.3336 0,5.00028 0,1.66668 0,3.33332 0.72186,4.58329 0.72185,1.24996 2.1652,2.08328 3.60859,2.91662 1.44339,0.83334 2.88674,1.66666 4.33013,2.5 1.44339,0.83334 2.88673,1.66666 3.60827,1.25001 0.72153,-0.41664 0.72153,-2.08327 0.72153,-3.74996 0,-1.66668 0,-3.33331 0,-5 0,-1.66668 0,-3.33331 -0.72155,-4.58336 -0.72154,-1.25005 -2.16489,-2.08336 -3.60828,-2.91671 -1.44339,-0.83334 -2.88674,-1.66666 -4.33013,-2.5 -1.44339,-0.83334 -2.88673,-1.66665 -3.60858,-1.24993 -0.72184,0.41672 -0.72184,2.08336 -0.72184,3.74976"
       id="path1107-1-3-0" />
    <path
       style="fill:#464646;fill-opacity:1;stroke:#000000;stroke-width:0.5;stroke-linecap:butt;stroke-linejoin:miter;stroke-miterlimit:4;stroke-dasharray:none;stroke-opacity:1"
       d="m 151.55444,197.5 c 0,1.66693 0,3.3336 0,5.00028 0,1.66668 0,3.33332 0.72186,4.58329 0.72185,1.24996 2.1652,2.08328 3.60859,2.91662 1.44339,0.83334 2.88673,1.66666 4.33012,2.5 1.44339,0.83334 2.88674,1.66666 3.60827,1.25001 0.72153,-0.41664 0.72153,-2.08327 0.72153,-3.74996 0,-1.66668 0,-3.33331 0,-5 0,-1.66668 0,-3.33331 -0.72154,-4.58336 -0.72155,-1.25005 -2.16489,-2.08336 -3.60828,-2.91671 -1.4434,-0.83334 -2.88674,-1.66666 -4.33013,-2.5 -1.44339,-0.83334 -2.88673,-1.66665 -3.60858,-1.24993 -0.72184,0.41672 -0.72184,2.08336 -0.72184,3.74976"
       id="path1107-1-8-0-1" />
    <path
       style="fill:#464646;fill-opacity:1;stroke:#000000;stroke-width:0.5;stroke-linecap:butt;stroke-linejoin:miter;stroke-miterlimit:4;stroke-dasharray:none;stroke-opacity:1"
       d="m 177.5352,197.5 c 0,1.66693 0,3.3336 0,5.00028 0,1.66668 0,3.33332 -0.72186,4.58328 -0.72186,1.24997 -2.16521,2.08329 -3.6086,2.91663 -1.44339,0.83334 -2.88673,1.66666 -4.33012,2.5 -1.44339,0.83334 -2.88674,1.66666 -3.60827,1.25001 -0.72153,-0.41664 -0.72153,-2.08327 -0.72153,-3.74996 0,-1.66668 0,-3.33331 0,-5 0,-1.66668 0,-3.33331 0.72154,-4.58336 0.72155,-1.25005 2.16489,-2.08336 3.60829,-2.91671 1.44339,-0.83334 2.88673,-1.66665 4.33012,-2.5 1.44339,-0.83334 2.88674,-1.66666 3.60858,-1.24993 0.72185,0.41672 0.72185,2.08336 0.72185,3.74976"
       id="path1107-1-8-0-7-6" />
    <path
       style="fill:#464646;fill-opacity:1;stroke:#000000;stroke-width:0.5;stroke-linecap:butt;stroke-linejoin:miter;stroke-miterlimit:4;stroke-dasharray:none;stroke-opacity:1"
       d="m 177.5352,182.5 c 0,1.66693 0,3.3336 0,5.00028 0,1.66668 0,3.33332 -0.72186,4.58328 -0.72186,1.24997 -2.16521,2.08329 -3.6086,2.91663 -1.44339,0.83334 -2.88673,1.66666 -4.33012,2.5 -1.44339,0.83334 -2.88674,1.66666 -3.60827,1.25001 -0.72153,-0.41664 -0.72153,-2.08327 -0.72153,-3.74996 0,-1.66668 0,-3.33331 0,-5 0,-1.66668 0,-3.33331 0.72154,-4.58336 0.72155,-1.25005 2.16489,-2.08336 3.60829,-2.91671 1.44339,-0.83334 2.88673,-1.66665 4.33012,-2.5 1.44339,-0.83334 2.88674,-1.66666 3.60858,-1.24993 0.72185,0.41672 0.72185,2.08336 0.72185,3.74976"
       id="path1107-1-8-0-7-0-6" />
    <path
       style="fill:#ff4646;fill-opacity:1;stroke:#000000;stroke-width:0.5;stroke-linecap:butt;stroke-linejoin:miter;stroke-miterlimit:4;stroke-dasharray:none;stroke-opacity:1"
       d="m 177.5352,167.5 c 0,1.66693 0,3.3336 0,5.00028 0,1.66668 0,3.33332 -0.72186,4.58328 -0.72186,1.24997 -2.16521,2.08329 -3.6086,2.91663 -1.44339,0.83334 -2.88673,1.66666 -4.33012,2.5 -1.44339,0.83334 -2.88674,1.66666 -3.60827,1.25001 -0.72153,-0.41664 -0.72153,-2.08327 -0.72153,-3.74996 0,-1.66668 0,-3.33331 0,-5 0,-1.66668 0,-3.33331 0.72154,-4.58336 0.72155,-1.25005 2.16489,-2.08336 3.60829,-2.91671 1.44339,-0.83334 2.88673,-1.66665 4.33012,-2.5 1.44339,-0.83334 2.88674,-1.66666 3.60858,-1.24993 0.72185,0.41672 0.72185,2.08336 0.72185,3.74976"
       id="path1107-1-8-0-7-4-6" />
    <path
       style="fill:#464646;fill-opacity:1;stroke:#000000;stroke-width:0.5;stroke-linecap:butt;stroke-linejoin:miter;stroke-miterlimit:4;stroke-dasharray:none;stroke-opacity:1"
       d="m 190.52558,190 c 0,1.66693 0,3.3336 0,5.00028 0,1.66668 0,3.33332 -0.72186,4.58328 -0.72186,1.24997 -2.16521,2.08329 -3.6086,2.91663 -1.44339,0.83334 -2.88673,1.66666 -4.33012,2.5 -1.44339,0.83334 -2.88674,1.66666 -3.60827,1.25001 -0.72153,-0.41664 -0.72153,-2.08327 -0.72153,-3.74996 0,-1.66668 0,-3.33331 0,-5 0,-1.66668 0,-3.33331 0.72154,-4.58336 0.72155,-1.25005 2.16489,-2.08336 3.60829,-2.91671 1.44339,-0.83334 2.88673,-1.66665 4.33012,-2.5 1.44339,-0.83334 2.88674,-1.66666 3.60859,-1.24993 0.72184,0.41672 0.72184,2.08336 0.72184,3.74976"
       id="path1107-1-8-0-7-5-4" />
    <path
       style="fill:#464646;fill-opacity:1;stroke:#000000;stroke-width:0.5;stroke-linecap:butt;stroke-linejoin:miter;stroke-miterlimit:4;stroke-dasharray:none;stroke-opacity:1"
       d="m 190.52558,175 c 0,1.66693 0,3.3336 0,5.00028 0,1.66668 0,3.33332 -0.72186,4.58328 -0.72186,1.24997 -2.16521,2.08329 -3.6086,2.91663 -1.44339,0.83334 -2.88673,1.66666 -4.33012,2.5 -1.44339,0.83334 -2.88674,1.66666 -3.60827,1.25001 -0.72153,-0.41664 -0.72153,-2.08327 -0.72153,-3.74996 0,-1.66668 0,-3.33331 0,-5 0,-1.66668 0,-3.33331 0.72154,-4.58336 0.72155,-1.25005 2.16489,-2.08336 3.60829,-2.91671 1.44339,-0.83334 2.88673,-1.66665 4.33012,-2.5 1.44339,-0.83334 2.88674,-1.66666 3.60859,-1.24993 0.72184,0.41672 0.72184,2.08336 0.72184,3.74976"
       id="path1107-1-8-0-7-0-2-3" />
    <path
       style="fill:#ff4646;fill-opacity:1;stroke:#0f071d;stroke-width:0.5;stroke-linecap:butt;stroke-linejoin:miter;stroke-miterlimit:4;stroke-dasharray:none;stroke-opacity:1"
       d="m 190.52558,160 c 0,1.66693 0,3.3336 0,5.00028 0,1.66668 0,3.33332 -0.72186,4.58328 -0.72186,1.24997 -2.16521,2.08329 -3.6086,2.91663 -1.44339,0.83334 -2.88673,1.66666 -4.33012,2.5 -1.44339,0.83334 -2.88674,1.66666 -3.60827,1.25001 -0.72153,-0.41664 -0.72153,-2.08327 -0.72153,-3.74996 0,-1.66668 0,-3.33331 0,-5 0,-1.66668 0,-3.33331 0.72154,-4.58336 0.72155,-1.25005 2.16489,-2.08336 3.60829,-2.91671 1.44339,-0.83334 2.88673,-1.66665 4.33012,-2.5 1.44339,-0.83334 2.88674,-1.66666 3.60859,-1.24993 0.72184,0.41672 0.72184,2.08336 0.72184,3.74976"
       id="path1107-1-8-0-7-4-5-7" />
    <path
       style="fill:#464646;fill-opacity:1;stroke:#000000;stroke-width:0.5;stroke-linecap:butt;stroke-linejoin:miter;stroke-miterlimit:4;stroke-dasharray:none;stroke-opacity:1"
       d="m 203.51596,182.5 c 0,1.66693 0,3.3336 0,5.00028 0,1.66668 0,3.33332 -0.72186,4.58328 -0.72186,1.24997 -2.16521,2.08329 -3.6086,2.91663 -1.44339,0.83334 -2.88673,1.66666 -4.33012,2.5 -1.44339,0.83334 -2.88674,1.66666 -3.60827,1.25001 -0.72153,-0.41664 -0.72153,-2.08327 -0.72153,-3.74996 0,-1.66668 0,-3.33331 0,-5 0,-1.66668 0,-3.33331 0.72155,-4.58336 0.72154,-1.25005 2.16488,-2.08336 3.60828,-2.91671 1.44339,-0.83334 2.88673,-1.66665 4.33012,-2.5 1.44339,-0.83334 2.88674,-1.66666 3.60859,-1.24993 0.72184,0.41672 0.72184,2.08336 0.72184,3.74976"
       id="path1107-1-8-0-7-2-9" />
    <path
       style="fill:#464646;fill-opacity:1;stroke:#000000;stroke-width:0.5;stroke-linecap:butt;stroke-linejoin:miter;stroke-miterlimit:4;stroke-dasharray:none;stroke-opacity:1"
       d="m 203.51596,167.5 c 0,1.66693 0,3.3336 0,5.00028 0,1.66668 0,3.33332 -0.72186,4.58328 -0.72186,1.24997 -2.16521,2.08329 -3.6086,2.91663 -1.44339,0.83334 -2.88673,1.66666 -4.33012,2.5 -1.44339,0.83334 -2.88674,1.66666 -3.60827,1.25001 -0.72153,-0.41664 -0.72153,-2.08327 -0.72153,-3.74996 0,-1.66668 0,-3.33331 0,-5 0,-1.66668 0,-3.33331 0.72155,-4.58336 0.72154,-1.25005 2.16488,-2.08336 3.60828,-2.91671 1.44339,-0.83334 2.88673,-1.66665 4.33012,-2.5 1.44339,-0.83334 2.88674,-1.66666 3.60859,-1.24993 0.72184,0.41672 0.72184,2.08336 0.72184,3.74976"
       id="path1107-1-8-0-7-0-26-7" />
    <path
       style="fill:#ff4646;fill-opacity:1;stroke:#000000;stroke-width:0.5;stroke-linecap:butt;stroke-linejoin:miter;stroke-miterlimit:4;stroke-dasharray:none;stroke-opacity:1"
       d="m 203.51596,152.5 c 0,1.66693 0,3.3336 0,5.00028 0,1.66668 0,3.33332 -0.72186,4.58328 -0.72186,1.24997 -2.16521,2.08329 -3.6086,2.91663 -1.44339,0.83334 -2.88673,1.66666 -4.33012,2.5 -1.44339,0.83334 -2.88674,1.66666 -3.60827,1.25001 -0.72153,-0.41664 -0.72153,-2.08327 -0.72153,-3.74996 0,-1.66668 0,-3.33331 0,-5 0,-1.66668 0,-3.33331 0.72155,-4.58336 0.72154,-1.25005 2.16488,-2.08336 3.60828,-2.91671 1.44339,-0.83334 2.88673,-1.66665 4.33012,-2.5 1.44339,-0.83334 2.88674,-1.66666 3.60859,-1.24993 0.72184,0.41672 0.72184,2.08336 0.72184,3.74976"
       id="path1107-1-8-0-7-4-9-1" />
  </g>
</svg>
